<svg xmlns="http://www.w3.org/2000/svg" viewBox="0 0 2048 2048" width="2048" height="2048">
<rect width="2048" height="2048" fill="white"/>
<path d="M 203.0,1471.2 186.0,1471.5 179.0,1469.2 165.0,1458.3 157.5,1441.0 157.5,1428.0 161.8,1418.0 171.7,1406.0 187.0,1398.8 196.0,1397.5 216.3,1403.0 240.5,1379.0 275.6,1336.0 222.0,1329.5 191.0,1328.5 185.0,1330.0 177.0,1344.3 167.0,1353.2 153.0,1358.5 137.0,1357.2 120.9,1348.0 111.5,1331.0 110.5,1317.0 112.8,1309.0 124.7,1292.0 138.0,1285.8 152.0,1284.5 166.0,1288.8 183.0,1302.4 198.0,1300.5 290.0,1306.5 320.0,1301.2 538.0,1210.2 579.0,1189.2 605.5,1169.0 665.5,1102.0 687.0,1082.5 727.0,1055.8 766.0,1039.0 520.0,1037.5 476.0,1048.8 462.0,1055.8 436.0,1074.5 384.5,1132.0 349.0,1158.5 343.2,1179.0 335.0,1189.5 322.0,1197.2 312.0,1199.5 300.0,1198.2 288.0,1193.2 275.7,1180.0 271.5,1169.0 271.5,1156.0 281.0,1136.7 292.0,1128.7 306.0,1124.5 323.0,1126.8 336.0,1133.2 363.0,1113.5 407.0,1063.5 436.2,1038.0 139.0,1037.6 126.3,1053.0 108.0,1061.5 90.0,1060.2 73.0,1048.3 65.5,1033.0 65.8,1013.0 78.0,994.5 95.0,986.5 108.0,986.5 120.0,990.8 139.0,1009.4 437.7,1009.0 399.0,974.5 366.5,937.0 343.0,917.8 334.0,913.8 321.0,921.2 305.0,922.5 294.0,919.3 281.5,911.0 275.8,903.0 271.8,891.0 272.8,875.0 278.8,862.0 285.0,855.5 302.0,847.5 321.0,848.8 335.0,856.5 345.2,871.0 349.0,888.1 382.5,913.0 437.0,972.5 477.0,998.2 521.0,1009.5 767.2,1009.0 712.0,981.2 686.0,962.5 662.5,940.0 608.5,879.0 578.0,855.8 553.0,841.8 335.0,749.8 310.0,742.5 275.0,740.5 216.0,747.5 183.0,747.6 165.0,761.3 149.0,763.9 136.0,761.2 125.7,755.0 115.8,740.0 113.5,722.0 119.8,706.0 131.0,695.8 147.0,690.5 161.0,691.8 170.0,695.8 179.5,704.0 189.0,719.4 215.0,719.5 277.8,713.0 264.5,696.0 218.3,649.0 199.0,653.5 188.0,652.2 174.7,646.0 165.8,636.0 160.5,622.0 160.5,610.0 167.8,594.0 172.7,588.0 183.0,581.8 205.0,579.5 218.0,584.8 229.2,595.0 234.5,607.0 235.0,627.3 265.0,655.5 298.5,693.0 320.0,710.2 360.0,731.2 530.0,801.4 491.2,724.0 471.0,694.7 446.5,665.0 443.0,663.1 431.0,665.5 417.0,663.2 407.0,657.5 394.8,642.0 392.5,621.0 395.7,611.0 402.5,601.0 421.0,590.8 432.0,589.5 443.0,591.8 452.0,596.5 463.2,610.0 467.5,625.0 465.8,646.0 486.0,668.7 517.2,714.0 567.0,805.3 588.0,828.5 625.0,856.5 697.5,935.0 742.0,966.2 786.0,985.2 841.0,1001.5 904.9,1010.0 905.4,1036.0 871.0,1039.5 821.0,1049.8 778.0,1063.8 740.0,1080.7 720.0,1092.8 696.0,1111.5 629.5,1185.0 585.0,1218.2 551.0,1235.2 382.0,1304.8 328.0,1329.8 313.0,1340.5 285.5,1367.0 257.5,1402.0 234.5,1423.0 232.2,1441.0 227.2,1455.0 217.0,1465.2 203.0,1471.2 Z" fill="#6FB065"/>
<path d="M 932.0,949.4 485.0,505.5 454.0,487.8 396.0,468.2 354.0,445.9 333.0,453.5 322.0,452.2 309.0,446.2 299.8,436.0 293.5,417.0 295.8,404.0 301.5,393.0 321.0,379.8 343.0,380.8 354.0,386.5 363.2,398.0 367.8,420.0 371.0,423.2 414.0,445.2 455.8,457.0 441.2,413.0 423.2,373.0 405.0,370.2 394.7,365.0 383.8,353.0 378.5,338.0 378.8,328.0 383.8,315.0 398.0,300.8 411.0,296.5 423.0,296.5 432.0,298.8 441.0,304.5 449.2,313.0 454.5,328.0 454.5,340.0 447.8,359.0 465.2,397.0 486.8,457.0 505.0,485.3 948.5,928.0 949.0,932.3 932.0,949.4 Z" fill="#6FB065"/>
<path d="M 1037.0,904.4 1011.0,904.8 1008.8,903.0 1005.2,866.0 995.2,823.0 980.2,777.0 957.9,731.0 957.0,720.6 950.0,720.2 914.5,680.0 853.0,624.5 824.5,585.0 805.3,567.0 704.0,510.2 673.7,489.0 647.0,465.8 632.0,469.5 620.0,468.2 605.7,461.0 597.8,452.0 592.8,441.0 591.5,428.0 598.0,409.7 607.7,400.0 619.0,394.8 633.0,393.5 642.0,395.8 659.2,409.0 665.5,424.0 664.8,445.0 676.0,455.5 717.0,486.2 799.8,530.0 740.2,382.0 715.2,331.0 697.9,308.0 630.0,237.5 615.0,237.5 603.0,234.2 591.0,226.5 584.8,218.0 581.5,209.0 581.8,191.0 588.0,177.7 601.0,166.8 610.0,163.5 625.0,163.5 644.1,172.0 653.2,185.0 656.5,196.0 651.8,219.0 717.0,287.6 721.5,229.0 721.4,193.0 710.0,185.5 698.7,172.0 694.5,159.0 695.8,142.0 706.7,126.0 727.0,117.5 745.0,119.8 753.3,124.0 762.2,133.0 768.5,147.0 768.5,161.0 764.2,173.0 749.6,190.0 749.5,223.0 744.5,269.0 746.5,311.0 760.8,357.0 817.2,497.0 819.8,509.0 823.2,511.0 838.8,549.0 853.8,577.0 873.0,603.5 944.5,669.0 962.5,689.0 983.3,718.0 1009.0,770.2 1009.5,524.0 1002.9,490.0 991.2,464.0 979.5,447.0 961.0,428.5 921.5,396.0 906.0,379.3 889.3,354.0 870.0,349.2 861.5,344.0 852.8,334.0 847.5,318.0 851.8,297.0 866.0,281.8 887.0,276.5 906.3,283.0 915.0,290.7 921.5,304.0 921.5,325.0 915.5,339.0 920.8,351.0 939.5,374.0 988.0,414.5 1009.0,437.2 1009.5,144.0 992.8,127.0 986.5,111.0 987.8,95.0 996.0,80.7 1006.0,72.8 1016.0,68.8 1026.0,67.5 1036.0,69.8 1054.5,83.0 1061.5,99.0 1061.5,113.0 1057.2,124.0 1037.6,142.0 1038.0,437.2 1076.0,400.5 1110.0,373.5 1128.0,349.7 1133.0,348.2 1133.2,338.0 1127.8,328.0 1125.5,310.0 1129.7,296.0 1137.7,286.0 1147.0,279.8 1159.0,276.5 1179.0,279.8 1187.0,284.5 1195.2,294.0 1201.4,314.0 1198.2,329.0 1191.5,340.0 1178.0,349.2 1158.0,354.5 1137.0,385.5 1069.5,446.0 1048.8,481.0 1040.8,506.0 1037.5,526.0 1038.0,769.7 1065.8,716.0 1087.5,687.0 1110.0,663.5 1179.7,600.0 1193.2,580.0 1218.2,530.0 1285.2,364.0 1301.5,313.0 1303.5,271.0 1298.5,232.0 1297.4,191.0 1283.8,175.0 1278.5,161.0 1278.8,149.0 1285.0,133.7 1290.7,127.0 1303.0,119.8 1321.0,117.5 1330.0,119.8 1342.3,127.0 1351.2,141.0 1353.5,158.0 1350.3,170.0 1343.0,181.5 1325.6,193.0 1325.5,224.0 1330.6,287.0 1396.0,219.3 1391.5,196.0 1395.8,183.0 1405.0,171.5 1421.0,163.8 1438.0,163.5 1450.3,169.0 1461.2,180.0 1465.5,191.0 1466.5,204.0 1458.5,224.0 1449.0,232.2 1440.0,236.2 1417.0,237.5 1354.5,303.0 1328.8,337.0 1294.8,413.0 1248.8,530.0 1327.0,489.2 1377.0,451.5 1383.8,444.0 1382.5,427.0 1387.8,412.0 1397.0,401.5 1407.0,395.8 1425.0,393.5 1437.0,397.7 1447.0,404.7 1457.5,426.0 1457.5,436.0 1453.2,449.0 1443.3,461.0 1428.0,468.2 1417.0,469.5 1402.0,465.8 1376.3,488.0 1340.0,513.2 1241.7,568.0 1228.5,580.0 1207.0,609.2 1201.3,610.0 1200.0,618.3 1183.5,636.0 1162.3,655.0 1154.0,658.0 1149.5,666.0 1122.5,689.0 1093.0,723.6 1066.8,778.0 1047.8,841.0 1037.0,904.4 Z" fill="#662D70"/>
<path d="M 1118.0,948.2 1115.0,948.4 1099.5,933.0 1098.4,930.0 1100.5,927.0 1544.0,484.3 1564.2,450.0 1584.8,393.0 1601.2,358.0 1592.6,333.0 1594.8,322.0 1605.0,306.5 1617.0,298.8 1626.0,296.5 1637.0,296.5 1649.0,300.7 1658.5,308.0 1665.2,318.0 1668.5,328.0 1668.5,339.0 1663.2,353.0 1653.3,364.0 1644.0,369.2 1623.8,373.0 1609.8,404.0 1592.1,458.0 1645.0,441.2 1678.0,423.2 1685.8,396.0 1693.7,387.0 1705.0,380.8 1715.0,378.5 1727.0,379.8 1746.5,393.0 1752.2,404.0 1753.5,422.0 1747.0,438.3 1734.0,449.2 1715.0,453.5 1693.0,445.8 1652.0,468.2 1593.0,487.8 1558.0,508.5 1118.0,948.2 Z" fill="#662D70"/>
<path d="M 1858.0,1473.2 1839.0,1470.2 1823.0,1458.5 1816.8,1448.0 1815.5,1428.0 1813.1,1424.0 1790.5,1403.0 1760.5,1366.0 1721.0,1330.8 1667.0,1305.8 1506.0,1239.2 1461.0,1217.2 1421.5,1188.0 1349.0,1109.5 1316.0,1085.8 1298.0,1075.8 1264.0,1061.8 1218.0,1047.8 1141.6,1036.0 1142.0,1009.8 1194.0,1003.5 1249.0,989.2 1311.0,963.2 1351.5,934.0 1420.0,858.5 1462.0,826.5 1480.0,806.3 1537.8,702.0 1563.0,666.7 1582.2,646.0 1581.8,616.0 1590.5,601.0 1604.0,591.8 1624.0,589.5 1641.5,597.0 1649.2,605.0 1655.2,618.0 1656.5,630.0 1654.2,640.0 1646.5,653.0 1638.0,660.2 1623.0,665.5 1604.0,663.8 1589.5,679.0 1551.8,733.0 1518.2,800.0 1677.0,735.2 1727.0,710.2 1742.5,698.0 1783.0,653.5 1811.5,627.0 1812.8,607.0 1819.9,592.0 1834.0,581.8 1847.0,578.5 1860.0,579.8 1873.0,585.8 1882.2,597.0 1887.5,613.0 1887.2,624.0 1882.2,636.0 1873.3,647.0 1859.0,653.2 1844.0,653.5 1828.7,650.0 1776.5,703.0 1771.2,712.0 1837.0,719.5 1858.0,719.4 1869.0,702.7 1875.7,697.0 1886.0,691.8 1898.0,689.5 1918.0,695.8 1928.2,706.0 1934.5,721.0 1932.2,741.0 1921.3,756.0 1900.0,764.5 1885.0,762.2 1864.0,748.5 1840.0,748.5 1779.0,741.5 1748.0,741.5 1712.0,750.8 1481.0,849.8 1438.5,881.0 1386.5,940.0 1362.0,963.5 1332.0,984.2 1286.7,1008.0 1524.0,1009.5 1567.0,999.2 1584.0,991.2 1608.0,974.5 1661.5,916.0 1699.0,887.0 1703.7,868.0 1715.0,854.5 1729.0,847.8 1740.0,846.6 1762.0,853.8 1773.3,868.0 1777.2,885.0 1775.2,897.0 1770.0,907.3 1761.0,916.2 1745.0,922.5 1731.0,922.2 1713.0,914.6 1707.7,916.0 1680.0,938.5 1648.5,975.0 1614.5,1006.0 1613.8,1009.0 1907.0,1009.5 1927.0,990.8 1937.0,986.5 1951.0,985.5 1970.0,994.5 1981.2,1010.0 1983.5,1027.0 1975.2,1048.0 1962.0,1059.2 1943.0,1062.5 1924.7,1056.0 1908.0,1037.6 1614.6,1038.0 1614.0,1040.4 1644.0,1067.5 1685.0,1113.5 1706.0,1129.2 1714.0,1132.4 1728.0,1125.8 1745.0,1124.5 1763.0,1131.8 1771.0,1140.7 1777.5,1161.0 1771.2,1183.0 1764.3,1191.0 1753.0,1197.2 1733.0,1199.5 1720.0,1195.2 1708.0,1185.5 1701.8,1174.0 1698.5,1160.0 1662.5,1132.0 1610.0,1074.5 1596.0,1063.8 1565.0,1046.8 1524.0,1037.5 1288.2,1039.0 1330.0,1059.8 1360.0,1080.5 1380.5,1099.0 1434.5,1160.0 1474.0,1191.2 1512.0,1210.2 1724.0,1299.2 1747.0,1305.5 1867.0,1300.4 1881.0,1288.7 1900.0,1283.5 1914.0,1286.8 1925.3,1293.0 1935.2,1309.0 1937.5,1325.0 1928.0,1347.3 1912.0,1357.2 1899.0,1359.5 1880.0,1353.3 1870.5,1346.0 1862.0,1331.0 1858.0,1329.5 1826.0,1329.5 1773.4,1336.0 1811.5,1383.0 1832.7,1403.0 1852.0,1397.5 1864.0,1398.8 1878.3,1406.0 1887.2,1417.0 1892.5,1433.0 1889.2,1450.0 1875.3,1466.0 1858.0,1473.2 Z" fill="#48B9C4"/>
<path d="M 1686.0,1715.2 1664.0,1713.2 1647.0,1701.5 1639.5,1681.0 1641.8,1663.0 1638.5,1658.0 1423.0,1444.9 1433.5,1547.0 1442.8,1581.0 1448.0,1589.2 1463.0,1589.5 1477.0,1595.5 1489.2,1610.0 1493.5,1622.0 1493.5,1635.0 1489.2,1646.0 1482.0,1655.5 1470.0,1663.2 1458.0,1665.5 1441.0,1663.2 1424.5,1651.0 1416.5,1632.0 1417.8,1618.0 1422.4,1607.0 1405.5,1555.0 1395.5,1461.0 1385.2,1424.0 1375.2,1403.0 1361.5,1383.0 1346.0,1366.5 1100.5,1121.0 1097.8,1115.0 1115.0,1097.5 1119.5,1098.0 1374.0,1353.5 1393.0,1369.2 1422.0,1385.2 1458.0,1397.2 1549.0,1411.5 1579.0,1419.8 1599.0,1428.4 1621.0,1420.5 1635.0,1421.5 1653.5,1433.0 1662.5,1453.0 1660.2,1473.0 1653.5,1484.0 1646.0,1490.2 1635.0,1495.2 1625.0,1496.5 1610.0,1493.2 1598.5,1486.0 1589.8,1475.0 1585.2,1455.0 1578.0,1450.8 1530.0,1437.5 1447.7,1425.0 1662.0,1641.5 1688.0,1641.8 1700.0,1646.8 1708.5,1655.0 1715.5,1672.0 1713.2,1692.0 1709.2,1701.0 1702.0,1708.5 1686.0,1715.2 Z" fill="#48B9C4"/>
<path d="M 1025.0,1981.2 1011.0,1979.2 999.0,1972.5 989.8,1962.0 984.5,1946.0 985.8,1933.0 990.8,1922.0 1008.5,1903.0 1007.0,1608.7 1002.5,1610.0 954.0,1671.7 935.8,1701.0 926.9,1724.0 939.2,1742.0 941.5,1762.0 931.5,1782.0 911.0,1793.2 891.0,1792.2 882.0,1788.2 872.5,1780.0 864.5,1760.0 864.5,1750.0 868.8,1737.0 879.7,1724.0 898.2,1715.0 905.8,1695.0 919.8,1669.0 979.2,1592.0 993.2,1565.0 1001.2,1543.0 1008.5,1505.0 1007.0,1285.3 984.2,1330.0 964.0,1359.3 940.5,1386.0 880.5,1441.0 853.8,1477.0 833.8,1519.0 757.8,1711.0 747.5,1750.0 747.5,1779.0 754.5,1840.0 754.6,1868.0 769.2,1884.0 774.5,1898.0 774.5,1912.0 770.0,1924.3 762.0,1933.5 751.0,1940.2 730.0,1942.5 718.0,1938.2 709.0,1931.5 700.8,1919.0 698.5,1908.0 700.8,1891.0 708.5,1878.0 724.4,1864.0 722.5,1818.0 718.5,1781.0 716.0,1776.6 689.5,1800.0 655.8,1836.0 658.5,1864.0 652.2,1879.0 644.0,1888.2 624.0,1895.5 604.0,1892.2 590.0,1880.3 582.5,1862.0 583.8,1846.0 591.0,1832.5 608.0,1820.8 632.0,1818.5 663.0,1784.5 690.5,1760.0 721.2,1721.0 809.8,1500.0 828.8,1461.0 857.5,1422.0 936.5,1347.0 966.3,1301.0 978.2,1275.0 992.2,1233.0 1001.5,1195.0 1008.5,1145.0 1013.0,1140.5 1036.0,1140.6 1038.2,1143.0 1047.5,1203.0 1061.8,1255.0 1077.8,1295.0 1091.8,1320.0 1115.0,1351.5 1193.5,1426.0 1221.2,1465.0 1253.2,1538.0 1327.8,1724.0 1359.5,1764.0 1378.5,1780.0 1415.0,1818.5 1437.0,1819.8 1450.5,1827.0 1461.2,1840.0 1465.5,1858.0 1461.2,1875.0 1447.0,1890.2 1433.0,1895.2 1424.0,1895.5 1405.0,1889.2 1396.0,1880.3 1389.8,1868.0 1388.5,1855.0 1392.5,1840.0 1390.2,1835.0 1330.0,1777.4 1327.5,1785.0 1321.5,1861.0 1323.5,1867.0 1340.5,1880.0 1347.2,1892.0 1349.5,1904.0 1347.2,1917.0 1336.0,1933.5 1317.0,1942.5 1305.0,1942.5 1294.0,1939.2 1279.0,1926.3 1273.8,1916.0 1272.5,1899.0 1278.8,1883.0 1292.5,1867.0 1292.5,1837.0 1299.5,1780.0 1299.5,1748.0 1290.2,1713.0 1211.2,1513.0 1191.2,1473.0 1177.5,1453.0 1156.5,1430.0 1112.5,1391.0 1085.5,1362.0 1067.8,1338.0 1040.0,1286.3 1038.5,1506.0 1045.8,1543.0 1065.8,1589.0 1123.2,1662.0 1138.3,1687.0 1150.9,1716.0 1167.0,1723.8 1176.2,1733.0 1182.2,1746.0 1183.5,1758.0 1179.2,1773.0 1174.5,1780.0 1156.0,1792.2 1134.0,1792.2 1123.0,1787.2 1113.5,1779.0 1107.8,1769.0 1105.5,1753.0 1110.8,1736.0 1120.7,1724.0 1117.2,1712.0 1096.0,1675.7 1043.0,1608.7 1040.0,1607.8 1038.5,1901.0 1040.5,1907.0 1056.2,1922.0 1061.2,1933.0 1062.5,1946.0 1059.2,1959.0 1048.0,1972.5 1036.0,1979.2 1025.0,1981.2 Z" fill="#F6C61D"/>
<path d="M 371.0,1716.2 349.0,1711.2 341.0,1705.5 334.8,1697.0 330.5,1683.0 330.5,1674.0 338.0,1655.7 347.0,1646.8 358.0,1641.8 387.0,1640.5 598.1,1427.0 595.0,1425.5 522.0,1436.5 467.0,1451.8 461.8,1456.0 457.2,1476.0 452.5,1483.0 439.0,1493.2 428.0,1496.5 408.0,1494.2 398.0,1488.5 389.8,1479.0 384.5,1465.0 384.5,1452.0 393.5,1433.0 402.0,1425.8 417.0,1420.5 433.0,1421.8 447.0,1428.4 474.0,1417.8 498.0,1411.5 587.0,1397.2 625.0,1385.2 651.0,1371.2 675.5,1352.0 922.5,1103.0 930.0,1096.9 933.0,1097.9 950.1,1116.0 945.5,1123.0 696.0,1371.5 683.0,1386.7 669.8,1408.0 655.8,1443.0 650.5,1468.0 641.5,1558.0 625.1,1606.0 630.5,1622.0 630.5,1634.0 622.5,1652.0 612.0,1661.2 600.0,1665.2 591.0,1666.5 576.0,1663.2 564.7,1656.0 558.8,1648.0 553.8,1635.0 553.5,1626.0 557.8,1610.0 569.0,1596.5 583.0,1589.8 600.0,1588.2 605.2,1578.0 613.5,1546.0 624.4,1448.0 623.0,1445.9 406.5,1661.0 407.5,1684.0 403.2,1697.0 389.0,1711.2 371.0,1716.2 Z" fill="#F6C61D"/>
<path d="M 1035.0,1117.2 1013.0,1117.5 991.0,1112.2 978.0,1106.2 961.7,1095.0 948.0,1080.3 937.8,1064.0 929.5,1035.0 929.5,1013.0 931.8,1001.0 936.8,985.0 948.0,966.7 959.0,954.5 974.0,942.8 987.0,935.8 1009.0,929.5 1041.0,929.8 1058.0,934.8 1078.0,945.8 1093.5,959.0 1105.2,975.0 1112.2,989.0 1117.5,1006.0 1118.5,1033.0 1117.2,1042.0 1111.2,1061.0 1101.0,1078.3 1090.0,1091.5 1071.0,1105.2 1056.0,1112.2 1035.0,1117.2 Z" fill="#2E6CBB"/>
</svg>